<svg width="24" height="24" viewBox="0 0 24 24" fill="current" xmlns="http://www.w3.org/2000/svg">
<path d="M21.8776 0.912211C21.8345 0.913628 21.7915 0.917431 21.7489 0.923605H14.3171C14.1625 0.921418 14.009 0.94998 13.8655 1.00763C13.722 1.06528 13.5915 1.15087 13.4814 1.25942C13.3713 1.36797 13.2838 1.49732 13.2242 1.63995C13.1645 1.78259 13.1338 1.93566 13.1338 2.09027C13.1338 2.24488 13.1645 2.39795 13.2242 2.54059C13.2838 2.68322 13.3713 2.81257 13.4814 2.92112C13.5915 3.02968 13.722 3.11526 13.8655 3.17291C14.009 3.23056 14.1625 3.25912 14.3171 3.25694H19.084L11.1589 11.1821C11.0469 11.2896 10.9575 11.4183 10.8959 11.5608C10.8343 11.7033 10.8018 11.8566 10.8002 12.0119C10.7986 12.1671 10.828 12.321 10.8867 12.4647C10.9454 12.6085 11.0321 12.739 11.1419 12.8488C11.2516 12.9585 11.3822 13.0453 11.5259 13.104C11.6696 13.1626 11.8236 13.192 11.9788 13.1905C12.134 13.1889 12.2874 13.1563 12.4298 13.0948C12.5723 13.0332 12.7011 12.9438 12.8086 12.8318L20.7337 4.90668V9.67361C20.7315 9.8282 20.7601 9.98169 20.8177 10.1252C20.8754 10.2686 20.961 10.3992 21.0695 10.5093C21.1781 10.6194 21.3074 10.7068 21.4501 10.7665C21.5927 10.8262 21.7458 10.8569 21.9004 10.8569C22.055 10.8569 22.2081 10.8262 22.3507 10.7665C22.4933 10.7068 22.6227 10.6194 22.7312 10.5093C22.8398 10.3992 22.9254 10.2686 22.983 10.1252C23.0407 9.98169 23.0692 9.8282 23.0671 9.67361V2.23383C23.0896 2.0662 23.0754 1.89569 23.0254 1.7341C22.9755 1.57251 22.8911 1.4237 22.7779 1.29799C22.6648 1.17228 22.5257 1.07267 22.3702 1.00605C22.2147 0.939441 22.0467 0.907421 21.8776 0.912211V0.912211ZM5.27539 2.6736C2.87362 2.6736 0.900391 4.64684 0.900391 7.04861V18.7153C0.900391 21.117 2.87362 23.0903 5.27539 23.0903H16.9421C19.3438 23.0903 21.3171 21.117 21.3171 18.7153V13.1736C21.3192 13.019 21.2907 12.8655 21.233 12.7221C21.1754 12.5786 21.0898 12.448 20.9812 12.3379C20.8727 12.2278 20.7433 12.1404 20.6007 12.0807C20.4581 12.0211 20.305 11.9903 20.1504 11.9903C19.9958 11.9903 19.8427 12.0211 19.7001 12.0807C19.5574 12.1404 19.4281 12.2278 19.3195 12.3379C19.211 12.448 19.1254 12.5786 19.0677 12.7221C19.0101 12.8655 18.9815 13.019 18.9837 13.1736V18.7153C18.9837 19.8508 18.0776 20.7569 16.9421 20.7569H5.27539C4.13982 20.7569 3.23372 19.8508 3.23372 18.7153V7.04861C3.23372 5.91304 4.13982 5.00694 5.27539 5.00694H10.8171C10.9717 5.00912 11.1251 4.98056 11.2686 4.92291C11.4121 4.86526 11.5426 4.77968 11.6527 4.67112C11.7628 4.56257 11.8503 4.43322 11.9099 4.29059C11.9696 4.14795 12.0003 3.99488 12.0003 3.84027C12.0003 3.68566 11.9696 3.53259 11.9099 3.38995C11.8503 3.24732 11.7628 3.11797 11.6527 3.00942C11.5426 2.90087 11.4121 2.81528 11.2686 2.75763C11.1251 2.69998 10.9717 2.67142 10.8171 2.6736H5.27539Z" fill="current"/>
</svg>
